<svg xmlns="http://www.w3.org/2000/svg" version="1.1" xmlns:xlink="http://www.w3.org/1999/xlink" xmlns:svgjs="http://svgjs.dev/svgjs" width="1500" height="280" viewBox="0 0 1500 280"><g transform="matrix(1,0,0,1,-0.9090909090909918,-1.018668495177451)"><svg viewBox="0 0 396 74" data-background-color="#ffffff" preserveAspectRatio="xMidYMid meet" height="280" width="1500" xmlns="http://www.w3.org/2000/svg" xmlns:xlink="http://www.w3.org/1999/xlink"><g id="tight-bounds" transform="matrix(1,0,0,1,0.2400000000000091,0.26921953086832673)"><svg viewBox="0 0 395.52 73.46156093826335" height="73.46156093826335" width="395.52"><g><svg viewBox="0 0 558.1603976454269 103.66943280985747" height="73.46156093826335" width="395.52"><g><rect width="6.764845468630684" height="90.01687364097607" x="413.22901955138923" y="6.826279584440698" fill="#ff851b" opacity="1" stroke-width="0" stroke="transparent" fill-opacity="1" class="rect-yte-0" data-fill-palette-color="primary" rx="1%" id="yte-0" data-palette-color="#ff851b"></rect></g><g transform="matrix(1,0,0,1,0,14.3276857211887)"><svg viewBox="0 0 395.52 75.01406136748007" height="75.01406136748007" width="395.52"><g id="textblocktransform"><svg viewBox="0 0 395.52 75.01406136748007" height="75.01406136748007" width="395.52" id="textblock"><g><svg viewBox="0 0 395.52 75.01406136748007" height="75.01406136748007" width="395.52"><g transform="matrix(1,0,0,1,0,0)"><svg width="395.52" viewBox="0.75 -38.7 206.93 39.25" height="75.01406136748007" data-palette-color="#ff851b"><path d="M31.4-0.85L24.2 0.25 21.75-9.5 9.8-9.5 7.15 0 0.75-0.5 5.15-12.65 11.85-34.15 20.8-34.8 27.25-13.4 31.4-0.85ZM20.25-14.8L16.3-28.3 15.65-28.3 11.35-14.8 20.25-14.8ZM48.25-4.9L48.25-4.9Q44.35 0 41.5 0L41.5 0Q37.95 0 35.67-2.9 33.4-5.8 33.4-10.35L33.4-10.35Q33.4-16.6 36.87-20.9 40.35-25.2 45.4-25.2L45.4-25.2 48.2-24.8 48.2-25.75 47.6-37.45 54.45-38.7 53.8-13 53.8-8.6Q53.8-5.6 55.3-1.7L55.3-1.7 49.9 0.55Q48.45-2.45 48.25-4.9ZM39-12.95Q39-9.75 40.17-7.95 41.35-6.15 43.57-6.15 45.8-6.15 48.2-7.95L48.2-7.95 48.2-18.75Q45.2-19.35 43.75-19.35L43.75-19.35Q41.5-19.35 40.25-17.75 39-16.15 39-12.95ZM73.34-4.9L73.34-4.9Q69.45 0 66.59 0L66.59 0Q63.05 0 60.77-2.9 58.5-5.8 58.5-10.35L58.5-10.35Q58.5-16.6 61.97-20.9 65.45-25.2 70.5-25.2L70.5-25.2 73.3-24.8 73.3-25.75 72.7-37.45 79.55-38.7 78.9-13 78.9-8.6Q78.9-5.6 80.4-1.7L80.4-1.7 75 0.55Q73.55-2.45 73.34-4.9ZM64.09-12.95Q64.09-9.75 65.27-7.95 66.45-6.15 68.67-6.15 70.9-6.15 73.3-7.95L73.3-7.95 73.3-18.75Q70.3-19.35 68.84-19.35L68.84-19.35Q66.59-19.35 65.34-17.75 64.09-16.15 64.09-12.95ZM85.24-24.2L91.94-25.45 91.34-13 91.89-1.25 85.19 0 85.79-12.15 85.24-24.2ZM84.89-32.77Q84.89-34.45 86.19-35.77 87.49-37.1 89.19-37.1 90.89-37.1 91.79-36.18 92.69-35.25 92.69-33.4 92.69-31.55 91.42-30.23 90.14-28.9 88.47-28.9 86.79-28.9 85.84-30 84.89-31.1 84.89-32.77ZM104.99-4.65L104.99-4.65Q107.59-4.65 107.59-6.95L107.59-6.95Q107.59-7.75 106.47-8.45 105.34-9.15 103.72-9.85 102.09-10.55 100.47-11.43 98.84-12.3 97.72-13.85 96.59-15.4 96.59-17.4L96.59-17.4Q96.59-20.75 99.54-23.25 102.49-25.75 106.34-25.75L106.34-25.75Q108.14-25.75 109.87-25.33 111.59-24.9 113.19-24L113.19-24 109.84-17.9Q109.49-18.2 108.94-18.65 108.39-19.1 106.87-19.83 105.34-20.55 104.17-20.55 102.99-20.55 102.37-20.03 101.74-19.5 101.74-18.57 101.74-17.65 103.47-16.73 105.19-15.8 107.24-15.03 109.29-14.25 111.02-12.48 112.74-10.7 112.74-8.25L112.74-8.25Q112.74-4.75 109.87-2.1 106.99 0.55 103.24 0.55L103.24 0.55Q100.84 0.55 98.77-0.5 96.69-1.55 95.79-2.6L95.79-2.6 94.89-3.65 98.84-8.25Q99.14-7.85 99.69-7.25 100.24-6.65 101.87-5.65 103.49-4.65 104.99-4.65ZM136.34-34.5L135.79-29.15 125.14-29.15 124.84-19.95 134.39-19.95 133.84-14.65 124.69-14.65 124.64-13 125.24 0 118.24 0 118.84-12.15 118.24-34.5 136.34-34.5ZM137.74-10.45Q137.74-16.85 141.19-21.3 144.64-25.75 149.26-25.75 153.89-25.75 156.46-22.75 159.04-19.75 159.04-14.8L159.04-14.8Q159.04-8.2 155.71-3.83 152.39 0.55 147.34 0.55L147.34 0.55Q143.19 0.55 140.46-2.58 137.74-5.7 137.74-10.45L137.74-10.45ZM153.44-12.2L153.44-12.2Q153.44-19.45 148.49-19.45L148.49-19.45Q143.34-19.45 143.34-12.65L143.34-12.65Q143.34-9.1 144.78-7.1 146.24-5.1 148.61-5.1 150.99-5.1 152.21-6.93 153.44-8.75 153.44-12.2ZM161.83-10.45Q161.83-16.85 165.28-21.3 168.73-25.75 173.36-25.75 177.98-25.75 180.56-22.75 183.13-19.75 183.13-14.8L183.13-14.8Q183.13-8.2 179.81-3.83 176.48 0.55 171.43 0.55L171.43 0.55Q167.28 0.55 164.56-2.58 161.83-5.7 161.83-10.45L161.83-10.45ZM177.53-12.2L177.53-12.2Q177.53-19.45 172.58-19.45L172.58-19.45Q167.43-19.45 167.43-12.65L167.43-12.65Q167.43-9.1 168.88-7.1 170.33-5.1 172.71-5.1 175.08-5.1 176.31-6.93 177.53-8.75 177.53-12.2ZM200.63-4.9L200.63-4.9Q196.73 0 193.88 0L193.88 0Q190.33 0 188.06-2.9 185.78-5.8 185.78-10.35L185.78-10.35Q185.78-16.6 189.25-20.9 192.73-25.2 197.78-25.2L197.78-25.2 200.58-24.8 200.58-25.75 199.98-37.45 206.83-38.7 206.18-13 206.18-8.6Q206.18-5.6 207.68-1.7L207.68-1.7 202.28 0.55Q200.83-2.45 200.63-4.9ZM191.38-12.95Q191.38-9.75 192.56-7.95 193.73-6.15 195.96-6.15 198.18-6.15 200.58-7.95L200.58-7.95 200.58-18.75Q197.58-19.35 196.13-19.35L196.13-19.35Q193.88-19.35 192.63-17.75 191.38-16.15 191.38-12.95Z" opacity="1" transform="matrix(1,0,0,1,0,0)" fill="#ff851b" class="wordmark-text-0" data-fill-palette-color="primary" id="text-0"></path></svg></g></svg></g></svg></g></svg></g><g transform="matrix(1,0,0,1,437.7028845714092,0)"><svg viewBox="0 0 120.45751307401774 103.66943280985747" height="103.66943280985747" width="120.45751307401774"><g><svg xmlns="http://www.w3.org/2000/svg" xmlns:xlink="http://www.w3.org/1999/xlink" version="1.1" x="0" y="0" viewBox="0 13.813 100.144 86.187" enable-background="new 0 0 100 100" xml:space="preserve" id="icon-0" width="120.45751307401774" height="103.66943280985747" class="icon-icon-0" data-fill-palette-color="accent"><g fill="#ff851b" data-fill-palette-color="accent"><polygon points="0,77.814 22.185,100 77.854,100 100.144,77.711  " fill="#ff851b" data-fill-palette-color="accent"></polygon><path d="M62.554 56.12L61.421 70.47 60.271 55.857C57.625 55.595 54.799 55.447 51.827 55.4L50.739 69.187 49.65 55.379C46.328 55.391 43.212 55.547 40.287 55.822L39.132 70.47 37.998 56.074C8.799 59.564 0 75.092 0 75.092H100.144S91.429 59.707 62.554 56.12" fill="#ff851b" data-fill-palette-color="accent"></path></g><path d="M50.244 29.826C54.977 35.235 57.316 43.597 52.352 48.561 56.843 37.451 45.024 35.56 45.024 25.868 45.969 16.058 52.116 13.813 52.116 13.813S45.279 24.153 50.244 29.826" fill="#ff851b" data-fill-palette-color="accent"></path></svg></g></svg></g></svg></g><defs></defs></svg><rect width="395.52" height="73.46156093826335" fill="none" stroke="none" visibility="hidden"></rect></g></svg></g></svg>